<svg xmlns="http://www.w3.org/2000/svg" width="34" height="34" viewBox="0 0 34 34">
  <g id="icon-circle-heart" transform="translate(-215 -1005)">
    <circle id="Ellipse_62" data-name="Ellipse 62" cx="17" cy="17" r="17" transform="translate(215 1005)" fill="#fff"/>
    <g id="Path_919" data-name="Path 919" transform="translate(-189.333 724.668)" fill="none">
      <path d="M428.927,291.736a4.829,4.829,0,0,0-6.808,0l-.788.788-.635-.635a4.952,4.952,0,0,0-6.6-.466,4.815,4.815,0,0,0-.361,7.121l.788.788,6.207,6.207a.85.85,0,0,0,1.2,0l6.207-6.2.788-.788A4.83,4.83,0,0,0,428.927,291.736Z" stroke="none"/>
      <path d="M 425.5230102539062 292.3320007324219 C 424.7705993652344 292.3320007324219 424.0624694824219 292.6240539550781 423.529052734375 293.1543579101562 L 423.529052734375 293.1543579101562 L 422.7451782226562 293.9382019042969 L 421.3309631347656 295.3524169921875 L 419.9167785644531 293.9381713867188 L 419.2817993164062 293.30322265625 C 418.6914367675781 292.7128601074219 417.8821411132812 292.3742980957031 417.0613708496094 292.3742980957031 C 416.6162414550781 292.3742980957031 415.9612731933594 292.4768981933594 415.3684387207031 292.9660339355469 C 414.7420349121094 293.4825744628906 414.3754272460938 294.2078552246094 414.3361511230469 295.00830078125 C 414.2967834472656 295.8101196289062 414.586669921875 296.564697265625 415.1492004394531 297.1297607421875 L 415.9372253417969 297.9177856445312 L 421.3312683105469 303.3118286132812 L 426.7247924804688 297.9217834472656 L 427.509033203125 297.1375427246094 C 428.6022033691406 296.0385437011719 428.6035766601562 294.2511901855469 427.5130615234375 293.1505126953125 C 426.9801025390625 292.6226806640625 426.2735595703125 292.3320007324219 425.5230102539062 292.3320007324219 M 425.5230102539062 290.3320007324219 C 426.7542419433594 290.3320007324219 427.9855041503906 290.8000183105469 428.927001953125 291.7359924316406 C 430.8009948730469 293.6199951171875 430.8009948730469 296.6640014648438 428.927001953125 298.5480041503906 L 428.1390075683594 299.3359985351562 L 421.9320068359375 305.5390014648438 C 421.7660217285156 305.7050170898438 421.5485229492188 305.7879943847656 421.3310241699219 305.7879943847656 C 421.1134948730469 305.7879943847656 420.89599609375 305.7050170898438 420.7300109863281 305.5390014648438 L 414.5230102539062 299.3320007324219 L 413.7349853515625 298.5440063476562 C 411.7520141601562 296.552001953125 411.8720092773438 293.2569885253906 414.0960083007812 291.4230041503906 C 414.9576110839844 290.7121276855469 416.0060119628906 290.3742980957031 417.0613708496094 290.3742980957031 C 418.3798522949219 290.3742980957031 419.7090454101562 290.9020080566406 420.6960144042969 291.8890075683594 L 421.3309936523438 292.5239868164062 L 422.1189880371094 291.7359924316406 C 423.0604858398438 290.8000183105469 424.291748046875 290.3320007324219 425.5230102539062 290.3320007324219 Z" stroke="none" fill="#0033a0"/>
    </g>
  </g>
</svg>
